<?xml version="1.0" encoding="UTF-8"?>
<svg xmlns="http://www.w3.org/2000/svg" xmlns:xlink="http://www.w3.org/1999/xlink" width="3001" height="2501" viewBox="0 0 3001 2501">
<defs>
<clipPath id="clip-0">

</clipPath>
<clipPath id="clip-1">
<path clip-rule="nonzero" d="M 3000.5 683.390625 L 3000.5 2500.5 L 0.5 2500.5 L 0.5 2034.148438 C 224.269531 2119.71875 306.550781 1675.160156 592.589844 1693.421875 C 878.628906 1711.671875 909.058594 1095.878906 1243.699219 1277.339844 C 1605.890625 1473.75 1807.238281 857.890625 2184.769531 1081.441406 C 2598.511719 1326.429688 2524.289062 567.78125 3000.5 683.390625 Z M 3000.5 683.390625 "/>
</clipPath>
<clipPath id="clip-2">
<path clip-rule="nonzero" d="M 3000.5 683.390625 L 3000.5 2500.5 L 0.5 2500.5 L 0.5 2034.148438 C 224.269531 2119.71875 306.550781 1675.160156 592.589844 1693.421875 C 878.628906 1711.671875 909.058594 1095.878906 1243.699219 1277.339844 C 1605.890625 1473.75 1807.238281 857.890625 2184.769531 1081.441406 C 2598.511719 1326.429688 2524.289062 567.78125 3000.5 683.390625 "/>
</clipPath>
<linearGradient id="linear-pattern-0" gradientUnits="userSpaceOnUse" x1="0.151965" y1="0" x2="0.690242" y2="0" gradientTransform="matrix(-6003.39, -2596.06, 2596.06, -6003.39, 4007.49, 2676.05)">
<stop offset="0" stop-color="rgb(93.235779%, 94.425964%, 97.991943%)" stop-opacity="1"/>
<stop offset="0.0078125" stop-color="rgb(93.075562%, 94.277954%, 97.935486%)" stop-opacity="1"/>
<stop offset="0.015625" stop-color="rgb(92.776489%, 94.009399%, 97.834778%)" stop-opacity="1"/>
<stop offset="0.0234375" stop-color="rgb(92.530823%, 93.806458%, 97.76001%)" stop-opacity="1"/>
<stop offset="0.03125" stop-color="rgb(92.320251%, 93.643188%, 97.702026%)" stop-opacity="1"/>
<stop offset="0.0390625" stop-color="rgb(92.108154%, 93.481445%, 97.644043%)" stop-opacity="1"/>
<stop offset="0.046875" stop-color="rgb(91.896057%, 93.289185%, 97.570801%)" stop-opacity="1"/>
<stop offset="0.0546875" stop-color="rgb(91.679382%, 93.045044%, 97.47467%)" stop-opacity="1"/>
<stop offset="0.0625" stop-color="rgb(91.462708%, 92.784119%, 97.370911%)" stop-opacity="1"/>
<stop offset="0.0703125" stop-color="rgb(91.247559%, 92.524719%, 97.265625%)" stop-opacity="1"/>
<stop offset="0.078125" stop-color="rgb(91.033936%, 92.306519%, 97.181702%)" stop-opacity="1"/>
<stop offset="0.0859375" stop-color="rgb(90.823364%, 92.138672%, 97.119141%)" stop-opacity="1"/>
<stop offset="0.09375" stop-color="rgb(90.612793%, 91.978455%, 97.061157%)" stop-opacity="1"/>
<stop offset="0.101563" stop-color="rgb(90.400696%, 91.818237%, 97.003174%)" stop-opacity="1"/>
<stop offset="0.109375" stop-color="rgb(90.19165%, 91.65802%, 96.94519%)" stop-opacity="1"/>
<stop offset="0.117187" stop-color="rgb(89.981079%, 91.499329%, 96.887207%)" stop-opacity="1"/>
<stop offset="0.125" stop-color="rgb(89.772034%, 91.339111%, 96.829224%)" stop-opacity="1"/>
<stop offset="0.132813" stop-color="rgb(89.561462%, 91.166687%, 96.765137%)" stop-opacity="1"/>
<stop offset="0.140625" stop-color="rgb(89.347839%, 90.943909%, 96.676636%)" stop-opacity="1"/>
<stop offset="0.148437" stop-color="rgb(89.134216%, 90.686035%, 96.572876%)" stop-opacity="1"/>
<stop offset="0.15625" stop-color="rgb(88.919067%, 90.429688%, 96.469116%)" stop-opacity="1"/>
<stop offset="0.171875" stop-color="rgb(88.68103%, 90.144348%, 96.353149%)" stop-opacity="1"/>
<stop offset="0.1875" stop-color="rgb(88.439941%, 89.855957%, 96.237183%)" stop-opacity="1"/>
<stop offset="0.195313" stop-color="rgb(88.20343%, 89.64386%, 96.154785%)" stop-opacity="1"/>
<stop offset="0.203125" stop-color="rgb(87.919617%, 89.465332%, 96.09375%)" stop-opacity="1"/>
<stop offset="0.210938" stop-color="rgb(87.609863%, 89.279175%, 96.029663%)" stop-opacity="1"/>
<stop offset="0.21875" stop-color="rgb(87.298584%, 89.093018%, 95.967102%)" stop-opacity="1"/>
<stop offset="0.234375" stop-color="rgb(87.034607%, 88.873291%, 95.883179%)" stop-opacity="1"/>
<stop offset="0.25" stop-color="rgb(86.798096%, 88.60321%, 95.774841%)" stop-opacity="1"/>
<stop offset="0.257812" stop-color="rgb(86.515808%, 88.320923%, 95.663452%)" stop-opacity="1"/>
<stop offset="0.265625" stop-color="rgb(86.201477%, 88.040161%, 95.555115%)" stop-opacity="1"/>
<stop offset="0.273438" stop-color="rgb(85.888672%, 87.760925%, 95.445251%)" stop-opacity="1"/>
<stop offset="0.28125" stop-color="rgb(85.618591%, 87.492371%, 95.339966%)" stop-opacity="1"/>
<stop offset="0.289062" stop-color="rgb(85.449219%, 87.254333%, 95.239258%)" stop-opacity="1"/>
<stop offset="0.296875" stop-color="rgb(85.340881%, 87.033081%, 95.143127%)" stop-opacity="1"/>
<stop offset="0.3125" stop-color="rgb(85.112%, 86.715698%, 95.00885%)" stop-opacity="1"/>
<stop offset="0.320312" stop-color="rgb(84.783936%, 86.4151%, 94.891357%)" stop-opacity="1"/>
<stop offset="0.328125" stop-color="rgb(84.475708%, 86.235046%, 94.828796%)" stop-opacity="1"/>
<stop offset="0.335938" stop-color="rgb(84.169006%, 86.054993%, 94.766235%)" stop-opacity="1"/>
<stop offset="0.34375" stop-color="rgb(83.905029%, 85.845947%, 94.68689%)" stop-opacity="1"/>
<stop offset="0.351562" stop-color="rgb(83.688354%, 85.603333%, 94.587708%)" stop-opacity="1"/>
<stop offset="0.359375" stop-color="rgb(83.479309%, 85.357666%, 94.485474%)" stop-opacity="1"/>
<stop offset="0.367188" stop-color="rgb(83.268738%, 85.115051%, 94.384766%)" stop-opacity="1"/>
<stop offset="0.375" stop-color="rgb(83.062744%, 84.921265%, 94.308472%)" stop-opacity="1"/>
<stop offset="0.382812" stop-color="rgb(82.85675%, 84.771729%, 94.252014%)" stop-opacity="1"/>
<stop offset="0.390625" stop-color="rgb(82.652283%, 84.620667%, 94.195557%)" stop-opacity="1"/>
<stop offset="0.398438" stop-color="rgb(82.447815%, 84.47113%, 94.139099%)" stop-opacity="1"/>
<stop offset="0.40625" stop-color="rgb(82.240295%, 84.320068%, 94.082642%)" stop-opacity="1"/>
<stop offset="0.414062" stop-color="rgb(82.035828%, 84.170532%, 94.026184%)" stop-opacity="1"/>
<stop offset="0.421875" stop-color="rgb(81.83136%, 84.022522%, 93.969727%)" stop-opacity="1"/>
<stop offset="0.429688" stop-color="rgb(81.626892%, 83.848572%, 93.901062%)" stop-opacity="1"/>
<stop offset="0.4375" stop-color="rgb(81.419373%, 83.625793%, 93.811035%)" stop-opacity="1"/>
<stop offset="0.445312" stop-color="rgb(81.211853%, 83.384705%, 93.708801%)" stop-opacity="1"/>
<stop offset="0.453125" stop-color="rgb(81.004333%, 83.140564%, 93.606567%)" stop-opacity="1"/>
<stop offset="0.460938" stop-color="rgb(80.79834%, 82.936096%, 93.52417%)" stop-opacity="1"/>
<stop offset="0.46875" stop-color="rgb(80.593872%, 82.777405%, 93.463135%)" stop-opacity="1"/>
<stop offset="0.476562" stop-color="rgb(80.39093%, 82.63092%, 93.406677%)" stop-opacity="1"/>
<stop offset="0.484375" stop-color="rgb(80.187988%, 82.484436%, 93.351746%)" stop-opacity="1"/>
<stop offset="0.492188" stop-color="rgb(79.981995%, 82.3349%, 93.293762%)" stop-opacity="1"/>
<stop offset="0.5" stop-color="rgb(79.779053%, 82.188416%, 93.238831%)" stop-opacity="1"/>
<stop offset="0.507812" stop-color="rgb(79.576111%, 82.043457%, 93.182373%)" stop-opacity="1"/>
<stop offset="0.515625" stop-color="rgb(79.362488%, 81.874084%, 93.11676%)" stop-opacity="1"/>
<stop offset="0.523438" stop-color="rgb(79.093933%, 81.5979%, 93.002319%)" stop-opacity="1"/>
<stop offset="0.53125" stop-color="rgb(78.785706%, 81.239319%, 92.851257%)" stop-opacity="1"/>
<stop offset="0.539062" stop-color="rgb(78.479004%, 80.883789%, 92.700195%)" stop-opacity="1"/>
<stop offset="0.546875" stop-color="rgb(78.172302%, 80.549622%, 92.559814%)" stop-opacity="1"/>
<stop offset="0.554688" stop-color="rgb(77.865601%, 80.26123%, 92.442322%)" stop-opacity="1"/>
<stop offset="0.5625" stop-color="rgb(77.561951%, 80.000305%, 92.337036%)" stop-opacity="1"/>
<stop offset="0.570312" stop-color="rgb(77.259827%, 79.73938%, 92.23175%)" stop-opacity="1"/>
<stop offset="0.578125" stop-color="rgb(76.989746%, 79.489136%, 92.127991%)" stop-opacity="1"/>
<stop offset="0.585938" stop-color="rgb(76.77002%, 79.249573%, 92.027283%)" stop-opacity="1"/>
<stop offset="0.59375" stop-color="rgb(76.567078%, 79.016113%, 91.928101%)" stop-opacity="1"/>
<stop offset="0.601562" stop-color="rgb(76.364136%, 78.782654%, 91.827393%)" stop-opacity="1"/>
<stop offset="0.609375" stop-color="rgb(76.16272%, 78.591919%, 91.748047%)" stop-opacity="1"/>
<stop offset="0.617188" stop-color="rgb(75.961304%, 78.445435%, 91.691589%)" stop-opacity="1"/>
<stop offset="0.625" stop-color="rgb(75.759888%, 78.305054%, 91.636658%)" stop-opacity="1"/>
<stop offset="0.632812" stop-color="rgb(75.553894%, 78.161621%, 91.581726%)" stop-opacity="1"/>
<stop offset="0.640625" stop-color="rgb(75.297546%, 78.007507%, 91.523743%)" stop-opacity="1"/>
<stop offset="0.648438" stop-color="rgb(74.996948%, 77.842712%, 91.464233%)" stop-opacity="1"/>
<stop offset="0.65625" stop-color="rgb(74.697876%, 77.677917%, 91.403198%)" stop-opacity="1"/>
<stop offset="0.664063" stop-color="rgb(74.415588%, 77.500916%, 91.33606%)" stop-opacity="1"/>
<stop offset="0.671875" stop-color="rgb(74.180603%, 77.293396%, 91.25061%)" stop-opacity="1"/>
<stop offset="0.679688" stop-color="rgb(73.980713%, 77.064514%, 91.151428%)" stop-opacity="1"/>
<stop offset="0.6875" stop-color="rgb(73.780823%, 76.835632%, 91.052246%)" stop-opacity="1"/>
<stop offset="0.695312" stop-color="rgb(73.580933%, 76.634216%, 90.966797%)" stop-opacity="1"/>
<stop offset="0.703125" stop-color="rgb(73.381042%, 76.475525%, 90.90271%)" stop-opacity="1"/>
<stop offset="0.710937" stop-color="rgb(73.181152%, 76.338196%, 90.847778%)" stop-opacity="1"/>
<stop offset="0.71875" stop-color="rgb(72.982788%, 76.200867%, 90.794373%)" stop-opacity="1"/>
<stop offset="0.726562" stop-color="rgb(72.782898%, 76.026917%, 90.722656%)" stop-opacity="1"/>
<stop offset="0.734375" stop-color="rgb(72.584534%, 75.808716%, 90.628052%)" stop-opacity="1"/>
<stop offset="0.742188" stop-color="rgb(72.384644%, 75.582886%, 90.52887%)" stop-opacity="1"/>
<stop offset="0.75" stop-color="rgb(72.184753%, 75.358582%, 90.431213%)" stop-opacity="1"/>
<stop offset="0.757812" stop-color="rgb(71.936035%, 75.166321%, 90.351868%)" stop-opacity="1"/>
<stop offset="0.765625" stop-color="rgb(71.636963%, 75.007629%, 90.293884%)" stop-opacity="1"/>
<stop offset="0.773438" stop-color="rgb(71.340942%, 74.847412%, 90.234375%)" stop-opacity="1"/>
<stop offset="0.78125" stop-color="rgb(71.057129%, 74.682617%, 90.171814%)" stop-opacity="1"/>
<stop offset="0.789063" stop-color="rgb(70.822144%, 74.482727%, 90.087891%)" stop-opacity="1"/>
<stop offset="0.796875" stop-color="rgb(70.623779%, 74.259949%, 89.990234%)" stop-opacity="1"/>
<stop offset="0.804688" stop-color="rgb(70.425415%, 74.035645%, 89.891052%)" stop-opacity="1"/>
<stop offset="0.8125" stop-color="rgb(70.228577%, 73.814392%, 89.793396%)" stop-opacity="1"/>
<stop offset="0.820312" stop-color="rgb(70.031738%, 73.59314%, 89.69574%)" stop-opacity="1"/>
<stop offset="0.828125" stop-color="rgb(69.8349%, 73.371887%, 89.598083%)" stop-opacity="1"/>
<stop offset="0.835937" stop-color="rgb(69.639587%, 73.152161%, 89.500427%)" stop-opacity="1"/>
<stop offset="0.84375" stop-color="rgb(69.441223%, 72.930908%, 89.402771%)" stop-opacity="1"/>
<stop offset="0.851562" stop-color="rgb(69.245911%, 72.709656%, 89.305115%)" stop-opacity="1"/>
<stop offset="0.859375" stop-color="rgb(69.050598%, 72.491455%, 89.207458%)" stop-opacity="1"/>
<stop offset="0.867188" stop-color="rgb(68.855286%, 72.271729%, 89.109802%)" stop-opacity="1"/>
<stop offset="0.875" stop-color="rgb(68.612671%, 72.084045%, 89.031982%)" stop-opacity="1"/>
<stop offset="0.882812" stop-color="rgb(68.322754%, 71.928406%, 88.972473%)" stop-opacity="1"/>
<stop offset="0.890625" stop-color="rgb(68.028259%, 71.775818%, 88.91449%)" stop-opacity="1"/>
<stop offset="0.898438" stop-color="rgb(67.74292%, 71.624756%, 88.856506%)" stop-opacity="1"/>
<stop offset="0.90625" stop-color="rgb(67.504883%, 71.485901%, 88.801575%)" stop-opacity="1"/>
<stop offset="0.914063" stop-color="rgb(67.311096%, 71.356201%, 88.748169%)" stop-opacity="1"/>
<stop offset="0.921875" stop-color="rgb(67.115784%, 71.226501%, 88.696289%)" stop-opacity="1"/>
<stop offset="0.929688" stop-color="rgb(66.918945%, 71.078491%, 88.633728%)" stop-opacity="1"/>
<stop offset="0.9375" stop-color="rgb(66.725159%, 70.890808%, 88.551331%)" stop-opacity="1"/>
<stop offset="0.945312" stop-color="rgb(66.531372%, 70.675659%, 88.453674%)" stop-opacity="1"/>
<stop offset="0.953125" stop-color="rgb(66.339111%, 70.46051%, 88.357544%)" stop-opacity="1"/>
<stop offset="0.960937" stop-color="rgb(66.145325%, 70.246887%, 88.261414%)" stop-opacity="1"/>
<stop offset="0.96875" stop-color="rgb(65.953064%, 70.03479%, 88.165283%)" stop-opacity="1"/>
<stop offset="0.976562" stop-color="rgb(65.759277%, 69.821167%, 88.069153%)" stop-opacity="1"/>
<stop offset="0.984375" stop-color="rgb(65.567017%, 69.607544%, 87.971497%)" stop-opacity="1"/>
<stop offset="0.992188" stop-color="rgb(65.335083%, 69.386292%, 87.87384%)" stop-opacity="1"/>
<stop offset="1" stop-color="rgb(65.052795%, 69.155884%, 87.773132%)" stop-opacity="1"/>
</linearGradient>
<clipPath id="clip-3">
<path clip-rule="nonzero" d="M 0 1009 L 3001 1009 L 3001 2501 L 0 2501 Z M 0 1009 "/>
</clipPath>
<clipPath id="clip-4">
<path clip-rule="nonzero" d="M 3000.5 1021.460938 L 3000.5 2500.5 L 0.5 2500.5 L 0.5 2252.109375 C 224.269531 2337.679688 306.550781 2013.21875 592.589844 2031.488281 C 878.628906 2049.738281 909.058594 1433.949219 1243.699219 1615.410156 C 1605.890625 1811.808594 1807.238281 1195.960938 2184.769531 1419.5 C 2598.511719 1664.5 2524.289062 905.839844 3000.5 1021.460938 Z M 3000.5 1021.460938 "/>
</clipPath>
<clipPath id="clip-5">
<path clip-rule="nonzero" d="M 3000.5 1021.460938 L 3000.5 2500.5 L 0.5 2500.5 L 0.5 2252.109375 C 224.269531 2337.679688 306.550781 2013.21875 592.589844 2031.488281 C 878.628906 2049.738281 909.058594 1433.949219 1243.699219 1615.410156 C 1605.890625 1811.808594 1807.238281 1195.960938 2184.769531 1419.5 C 2598.511719 1664.5 2524.289062 905.839844 3000.5 1021.460938 "/>
</clipPath>
<linearGradient id="linear-pattern-1" gradientUnits="userSpaceOnUse" x1="0.053978" y1="0" x2="0.543857" y2="0" gradientTransform="matrix(-6281.01, -2917.07, 2917.07, -6281.01, 3355.92, 2622.68)">
<stop offset="0" stop-color="rgb(98.052979%, 98.46344%, 99.458313%)" stop-opacity="1"/>
<stop offset="0.015625" stop-color="rgb(97.857666%, 98.309326%, 99.404907%)" stop-opacity="1"/>
<stop offset="0.03125" stop-color="rgb(97.538757%, 98.025513%, 99.301147%)" stop-opacity="1"/>
<stop offset="0.046875" stop-color="rgb(97.314453%, 97.772217%, 99.203491%)" stop-opacity="1"/>
<stop offset="0.0625" stop-color="rgb(97.04895%, 97.506714%, 99.102783%)" stop-opacity="1"/>
<stop offset="0.078125" stop-color="rgb(96.688843%, 97.210693%, 98.995972%)" stop-opacity="1"/>
<stop offset="0.09375" stop-color="rgb(96.299744%, 96.907043%, 98.887634%)" stop-opacity="1"/>
<stop offset="0.109375" stop-color="rgb(95.91217%, 96.603394%, 98.780823%)" stop-opacity="1"/>
<stop offset="0.125" stop-color="rgb(95.523071%, 96.30127%, 98.672485%)" stop-opacity="1"/>
<stop offset="0.140625" stop-color="rgb(95.135498%, 95.999146%, 98.565674%)" stop-opacity="1"/>
<stop offset="0.15625" stop-color="rgb(94.747925%, 95.698547%, 98.457336%)" stop-opacity="1"/>
<stop offset="0.171875" stop-color="rgb(94.360352%, 95.397949%, 98.350525%)" stop-opacity="1"/>
<stop offset="0.179688" stop-color="rgb(94.070435%, 95.173645%, 98.269653%)" stop-opacity="1"/>
<stop offset="0.1875" stop-color="rgb(93.838501%, 94.976807%, 98.197937%)" stop-opacity="1"/>
<stop offset="0.195313" stop-color="rgb(93.557739%, 94.721985%, 98.101807%)" stop-opacity="1"/>
<stop offset="0.203125" stop-color="rgb(93.264771%, 94.451904%, 98.001099%)" stop-opacity="1"/>
<stop offset="0.210938" stop-color="rgb(92.973328%, 94.18335%, 97.900391%)" stop-opacity="1"/>
<stop offset="0.21875" stop-color="rgb(92.713928%, 93.954468%, 97.814941%)" stop-opacity="1"/>
<stop offset="0.234375" stop-color="rgb(92.407227%, 93.710327%, 97.72644%)" stop-opacity="1"/>
<stop offset="0.25" stop-color="rgb(92.021179%, 93.392944%, 97.608948%)" stop-opacity="1"/>
<stop offset="0.265625" stop-color="rgb(91.630554%, 92.985535%, 97.450256%)" stop-opacity="1"/>
<stop offset="0.28125" stop-color="rgb(91.236877%, 92.527771%, 97.268677%)" stop-opacity="1"/>
<stop offset="0.296875" stop-color="rgb(90.849304%, 92.158508%, 97.12677%)" stop-opacity="1"/>
<stop offset="0.3125" stop-color="rgb(90.466309%, 91.867065%, 97.021484%)" stop-opacity="1"/>
<stop offset="0.328125" stop-color="rgb(90.083313%, 91.575623%, 96.914673%)" stop-opacity="1"/>
<stop offset="0.34375" stop-color="rgb(89.701843%, 91.28418%, 96.809387%)" stop-opacity="1"/>
<stop offset="0.359375" stop-color="rgb(89.315796%, 90.904236%, 96.661377%)" stop-opacity="1"/>
<stop offset="0.375" stop-color="rgb(88.925171%, 90.437317%, 96.472168%)" stop-opacity="1"/>
<stop offset="0.40625" stop-color="rgb(88.531494%, 89.96582%, 96.281433%)" stop-opacity="1"/>
<stop offset="0.414063" stop-color="rgb(88.212585%, 89.646912%, 96.156311%)" stop-opacity="1"/>
<stop offset="0.421875" stop-color="rgb(87.954712%, 89.485168%, 96.099854%)" stop-opacity="1"/>
<stop offset="0.429688" stop-color="rgb(87.670898%, 89.315796%, 96.04187%)" stop-opacity="1"/>
<stop offset="0.4375" stop-color="rgb(87.388611%, 89.146423%, 95.985413%)" stop-opacity="1"/>
<stop offset="0.453125" stop-color="rgb(87.113953%, 88.934326%, 95.906067%)" stop-opacity="1"/>
<stop offset="0.46875" stop-color="rgb(86.882019%, 88.694763%, 95.811462%)" stop-opacity="1"/>
<stop offset="0.476563" stop-color="rgb(86.695862%, 88.491821%, 95.729065%)" stop-opacity="1"/>
<stop offset="0.484375" stop-color="rgb(86.462402%, 88.273621%, 95.645142%)" stop-opacity="1"/>
<stop offset="0.492188" stop-color="rgb(86.177063%, 88.018799%, 95.545959%)" stop-opacity="1"/>
<stop offset="0.5" stop-color="rgb(85.891724%, 87.762451%, 95.446777%)" stop-opacity="1"/>
<stop offset="0.515625" stop-color="rgb(85.585022%, 87.416077%, 95.304871%)" stop-opacity="1"/>
<stop offset="0.53125" stop-color="rgb(85.321045%, 86.994934%, 95.124817%)" stop-opacity="1"/>
<stop offset="0.539062" stop-color="rgb(85.159302%, 86.695862%, 94.995117%)" stop-opacity="1"/>
<stop offset="0.546875" stop-color="rgb(84.954834%, 86.515808%, 94.926453%)" stop-opacity="1"/>
<stop offset="0.554687" stop-color="rgb(84.674072%, 86.351013%, 94.868469%)" stop-opacity="1"/>
<stop offset="0.5625" stop-color="rgb(84.393311%, 86.186218%, 94.812012%)" stop-opacity="1"/>
<stop offset="0.570312" stop-color="rgb(84.114075%, 86.022949%, 94.755554%)" stop-opacity="1"/>
<stop offset="0.578125" stop-color="rgb(83.877563%, 85.827637%, 94.680786%)" stop-opacity="1"/>
<stop offset="0.59375" stop-color="rgb(83.59375%, 85.490417%, 94.540405%)" stop-opacity="1"/>
<stop offset="0.609375" stop-color="rgb(83.213806%, 85.079956%, 94.372559%)" stop-opacity="1"/>
<stop offset="0.625" stop-color="rgb(82.836914%, 84.75647%, 94.245911%)" stop-opacity="1"/>
<stop offset="0.640625" stop-color="rgb(82.463074%, 84.483337%, 94.143677%)" stop-opacity="1"/>
<stop offset="0.65625" stop-color="rgb(82.090759%, 84.210205%, 94.041443%)" stop-opacity="1"/>
<stop offset="0.671875" stop-color="rgb(81.716919%, 83.91571%, 93.927002%)" stop-opacity="1"/>
<stop offset="0.6875" stop-color="rgb(81.340027%, 83.534241%, 93.771362%)" stop-opacity="1"/>
<stop offset="0.703125" stop-color="rgb(80.964661%, 83.111572%, 93.595886%)" stop-opacity="1"/>
<stop offset="0.71875" stop-color="rgb(80.59082%, 82.775879%, 93.461609%)" stop-opacity="1"/>
<stop offset="0.734375" stop-color="rgb(80.220032%, 82.507324%, 93.359375%)" stop-opacity="1"/>
<stop offset="0.75" stop-color="rgb(79.849243%, 82.240295%, 93.258667%)" stop-opacity="1"/>
<stop offset="0.765625" stop-color="rgb(79.472351%, 81.962585%, 93.151855%)" stop-opacity="1"/>
<stop offset="0.773438" stop-color="rgb(79.142761%, 81.654358%, 93.026733%)" stop-opacity="1"/>
<stop offset="0.78125" stop-color="rgb(78.862%, 81.329346%, 92.889404%)" stop-opacity="1"/>
<stop offset="0.789063" stop-color="rgb(78.582764%, 81.004333%, 92.752075%)" stop-opacity="1"/>
<stop offset="0.796875" stop-color="rgb(78.302002%, 80.680847%, 92.614746%)" stop-opacity="1"/>
<stop offset="0.804688" stop-color="rgb(78.024292%, 80.39856%, 92.497253%)" stop-opacity="1"/>
<stop offset="0.8125" stop-color="rgb(77.746582%, 80.158997%, 92.401123%)" stop-opacity="1"/>
<stop offset="0.820313" stop-color="rgb(77.470398%, 79.920959%, 92.304993%)" stop-opacity="1"/>
<stop offset="0.828125" stop-color="rgb(77.194214%, 79.684448%, 92.208862%)" stop-opacity="1"/>
<stop offset="0.835938" stop-color="rgb(76.956177%, 79.457092%, 92.115784%)" stop-opacity="1"/>
<stop offset="0.84375" stop-color="rgb(76.763916%, 79.241943%, 92.024231%)" stop-opacity="1"/>
<stop offset="0.859375" stop-color="rgb(76.486206%, 78.923035%, 91.888428%)" stop-opacity="1"/>
<stop offset="0.875" stop-color="rgb(76.118469%, 78.569031%, 91.740417%)" stop-opacity="1"/>
<stop offset="0.890625" stop-color="rgb(75.752258%, 78.29895%, 91.633606%)" stop-opacity="1"/>
<stop offset="0.898438" stop-color="rgb(75.454712%, 78.100586%, 91.557312%)" stop-opacity="1"/>
<stop offset="0.90625" stop-color="rgb(75.202942%, 77.955627%, 91.503906%)" stop-opacity="1"/>
<stop offset="0.914062" stop-color="rgb(74.92981%, 77.804565%, 91.4505%)" stop-opacity="1"/>
<stop offset="0.921875" stop-color="rgb(74.656677%, 77.655029%, 91.395569%)" stop-opacity="1"/>
<stop offset="0.929687" stop-color="rgb(74.40033%, 77.494812%, 91.334534%)" stop-opacity="1"/>
<stop offset="0.9375" stop-color="rgb(74.191284%, 77.304077%, 91.255188%)" stop-opacity="1"/>
<stop offset="0.953125" stop-color="rgb(73.918152%, 76.991272%, 91.119385%)" stop-opacity="1"/>
<stop offset="0.96875" stop-color="rgb(73.553467%, 76.626587%, 90.965271%)" stop-opacity="1"/>
<stop offset="0.984375" stop-color="rgb(73.190308%, 76.344299%, 90.85083%)" stop-opacity="1"/>
<stop offset="1" stop-color="rgb(72.827148%, 76.048279%, 90.72876%)" stop-opacity="1"/>
</linearGradient>
</defs>
<path fill-rule="nonzero" fill="rgb(100%, 100%, 100%)" fill-opacity="1" d="M 3000.5 2500.5 L 0.5 2500.5 L 0.5 0.5 L 3000.5 0.5 L 3000.5 2500.5 "/>
<path fill="none" stroke-width="10" stroke-linecap="butt" stroke-linejoin="miter" stroke="rgb(6.266785%, 5.734253%, 5.047607%)" stroke-opacity="1" stroke-miterlimit="10" d="M 30005 5 L 5 5 L 5 25005 L 30005 25005 Z M 30005 5 " transform="matrix(0.1, 0, 0, -0.1, 0, 2501)"/>
<g clip-path="url(#clip-0)">
<g clip-path="url(#clip-1)">
<g clip-path="url(#clip-2)">
<path fill-rule="nonzero" fill="url(#linear-pattern-0)" d="M 2527.886719 3593.421875 L 3704.605469 872.257812 L 473.113281 -525.144531 L -703.605469 2196.023438 Z M 2527.886719 3593.421875 "/>
</g>
</g>
</g>
<g clip-path="url(#clip-3)">
<g clip-path="url(#clip-4)">
<g clip-path="url(#clip-5)">
<path fill-rule="nonzero" fill="url(#linear-pattern-1)" d="M 2468.230469 3646.578125 L 3609.703125 1188.769531 L 532.769531 -240.238281 L -608.703125 2217.570312 Z M 2468.230469 3646.578125 "/>
</g>
</g>
</g>
<path fill="none" stroke-width="107.971" stroke-linecap="butt" stroke-linejoin="miter" stroke="rgb(52.832031%, 75.283813%, 91.923523%)" stroke-opacity="1" stroke-miterlimit="10" d="M 16977.382812 5617.109375 C 17146.289062 6382.382812 17261.914062 7049.21875 17339.882812 7622.8125 C 17471.289062 8590.195312 17495.390625 9292.382812 17486.40625 9753.710938 " transform="matrix(0.1, 0, 0, -0.1, 0, 2501)"/>
<path fill-rule="nonzero" fill="rgb(9.518433%, 18.925476%, 28.314209%)" fill-opacity="1" d="M 1613.171875 2102.089844 C 1613.171875 2102.089844 1605.890625 2123.371094 1605.890625 2131.550781 C 1605.890625 2139.730469 1630.050781 2157.121094 1640.460938 2181.691406 C 1650.859375 2206.269531 1667.21875 2234.519531 1690.640625 2222.988281 C 1714.058594 2211.46875 1715.539062 2191.03125 1702.53125 2172.441406 C 1689.519531 2153.851562 1667.320312 2123.578125 1656.671875 2098.949219 C 1646.03125 2074.308594 1635.988281 2075.800781 1635.988281 2075.800781 C 1635.988281 2075.800781 1613.171875 2094.941406 1613.171875 2102.089844 "/>
<path fill-rule="nonzero" fill="rgb(90.16571%, 67.538452%, 36.912537%)" fill-opacity="1" d="M 1614.339844 2045.101562 C 1614.339844 2045.101562 1618.699219 2085.828125 1614.339844 2095.121094 C 1609.980469 2104.421875 1618.53125 2104.050781 1629.679688 2118.539062 C 1640.828125 2133.039062 1639.339844 2121.46875 1639.339844 2111.269531 C 1639.339844 2101.070312 1641.570312 2101.449219 1650.121094 2099.210938 C 1658.671875 2096.980469 1659.789062 2114.449219 1659.789062 2114.449219 C 1659.789062 2114.449219 1659.230469 2115.378906 1661.269531 2115.378906 C 1663.320312 2115.378906 1661.640625 2109.988281 1655.878906 2097.171875 C 1650.121094 2084.339844 1649.628906 2067.371094 1651.359375 2052.261719 C 1653.101562 2037.140625 1615.96875 2037.210938 1614.339844 2045.101562 "/>
<path fill-rule="nonzero" fill="rgb(9.518433%, 18.925476%, 28.314209%)" fill-opacity="1" d="M 1503.910156 2130.320312 C 1503.910156 2130.320312 1497.421875 2153.109375 1499.800781 2164.261719 C 1502.179688 2175.410156 1532.960938 2251.609375 1553.070312 2251.609375 C 1573.179688 2251.609375 1606.261719 2256.070312 1602.910156 2238.238281 C 1599.570312 2220.390625 1560.839844 2149.761719 1553.070312 2124.859375 C 1545.300781 2099.960938 1511.21875 2113.839844 1503.910156 2130.320312 "/>
<path fill-rule="nonzero" fill="rgb(90.16571%, 67.538452%, 36.912537%)" fill-opacity="1" d="M 1499.800781 2070.28125 C 1499.800781 2070.28125 1510.121094 2080.261719 1507.628906 2104.539062 C 1505.160156 2128.828125 1503.910156 2130.320312 1503.910156 2130.320312 C 1503.910156 2130.320312 1513.328125 2144.558594 1517.421875 2144.558594 C 1521.511719 2144.558594 1513.710938 2128.210938 1524.480469 2124.859375 C 1535.261719 2121.519531 1543.808594 2119.648438 1547.53125 2128.949219 C 1551.25 2138.25 1554.96875 2130.429688 1551.988281 2117.800781 C 1549.019531 2105.160156 1543 2082.949219 1545.078125 2067.851562 C 1547.160156 2052.75 1502.25 2061.421875 1499.800781 2070.28125 "/>
<path fill-rule="nonzero" fill="rgb(11.073303%, 23.751831%, 37.104797%)" fill-opacity="1" d="M 1719.261719 1539.039062 C 1719.261719 1539.039062 1734.128906 1634.199219 1719.261719 1742.75 C 1704.390625 1851.28125 1677.628906 2049.769531 1651.609375 2049.769531 C 1625.578125 2049.769531 1612.210938 2058.699219 1607.75 2024.5 C 1603.289062 1990.300781 1600.808594 1882 1611.710938 1782.878906 C 1622.621094 1683.761719 1599.679688 1605.609375 1599.679688 1605.609375 L 1621.789062 1548.078125 L 1719.261719 1539.039062 "/>
<path fill-rule="nonzero" fill="rgb(13.412476%, 28.839111%, 48.683167%)" fill-opacity="1" d="M 1506.640625 1489.980469 C 1506.640625 1489.980469 1494.011719 1605.210938 1490.289062 1672.121094 C 1486.570312 1739.019531 1498.46875 1852.03125 1485.078125 1906.300781 C 1471.699219 1960.570312 1473.429688 2075.800781 1513.578125 2075.800781 C 1553.71875 2075.800781 1551.75 2064.390625 1551.75 2015.328125 C 1551.75 1966.261719 1573.058594 1901.828125 1590.898438 1792.800781 C 1608.738281 1683.761719 1635.988281 1501.871094 1635.988281 1501.871094 L 1506.640625 1489.980469 "/>
<path fill-rule="nonzero" fill="rgb(52.832031%, 75.283813%, 91.923523%)" fill-opacity="1" d="M 1502.179688 1470.648438 C 1502.179688 1470.648438 1506.640625 1495.210938 1491.769531 1522.328125 C 1476.898438 1549.449219 1476.898438 1549.449219 1476.898438 1549.449219 C 1476.898438 1549.449219 1544.320312 1607.671875 1628.558594 1591.828125 C 1712.800781 1575.980469 1722.46875 1553.738281 1722.46875 1553.738281 C 1722.46875 1553.738281 1705.179688 1487.75 1705.179688 1470.648438 C 1705.179688 1453.550781 1502.179688 1470.648438 1502.179688 1470.648438 "/>
<path fill-rule="nonzero" fill="rgb(90.16571%, 67.538452%, 36.912537%)" fill-opacity="1" d="M 1686.550781 1517.671875 C 1686.550781 1517.671875 1695.460938 1518.601562 1702.160156 1511.910156 C 1708.851562 1505.21875 1743.238281 1501.871094 1757.730469 1501.871094 C 1772.230469 1501.871094 1780.410156 1501.871094 1780.410156 1506.890625 C 1780.410156 1511.910156 1771.480469 1516.929688 1764.050781 1516.929688 C 1756.621094 1516.929688 1734.871094 1520.449219 1738.769531 1524.359375 C 1742.679688 1528.261719 1765.96875 1544.121094 1791.128906 1547.21875 C 1816.28125 1550.320312 1820.25 1556.261719 1820.25 1560.230469 C 1820.25 1564.199219 1810.199219 1566.179688 1805.621094 1565.058594 C 1801.039062 1563.949219 1772.53125 1559.351562 1772.53125 1559.351562 C 1772.53125 1559.351562 1791 1565.058594 1804.878906 1568.171875 C 1818.761719 1571.261719 1825.078125 1570.398438 1827.058594 1576.089844 C 1829.039062 1581.789062 1828.171875 1584.761719 1824.328125 1584.761719 C 1820.488281 1584.761719 1809.210938 1583.898438 1809.210938 1583.898438 C 1809.210938 1583.898438 1818.261719 1588.109375 1818.261719 1592.941406 C 1818.261719 1597.769531 1806.609375 1596.53125 1804.140625 1596.53125 C 1801.660156 1596.53125 1796.578125 1596.679688 1796.578125 1596.679688 C 1796.578125 1596.679688 1801.410156 1601.308594 1799.738281 1605.019531 C 1798.058594 1608.738281 1761.640625 1593.871094 1744.910156 1589.78125 C 1728.179688 1585.691406 1709.378906 1574.710938 1693.730469 1563.820312 C 1678.089844 1552.929688 1666.96875 1548.710938 1663.25 1548.710938 C 1659.53125 1548.710938 1678.621094 1513.898438 1686.550781 1517.671875 "/>
<path fill-rule="nonzero" fill="rgb(90.16571%, 67.538452%, 36.912537%)" fill-opacity="1" d="M 1990.609375 1358.398438 C 1990.609375 1358.398438 2005.660156 1356.53125 2015.511719 1346.679688 C 2025.359375 1336.828125 2052.878906 1326.429688 2067.738281 1326.429688 C 2082.609375 1326.429688 2080.75 1328.839844 2077.78125 1333.671875 C 2074.800781 1338.5 2074.058594 1339.621094 2065.699219 1341.480469 C 2057.328125 1343.339844 2051.570312 1347.050781 2069.039062 1343.710938 C 2086.511719 1340.359375 2121.699219 1334.851562 2135.328125 1334.851562 C 2148.960938 1334.851562 2152.191406 1343.519531 2144.5 1345.378906 C 2136.820312 1347.238281 2091.839844 1354.300781 2091.839844 1354.300781 C 2091.839844 1354.300781 2123.691406 1351.210938 2137.558594 1351.210938 C 2151.441406 1351.210938 2159.191406 1355.980469 2153.789062 1361.371094 C 2148.410156 1366.761719 2134.578125 1365.449219 2121.699219 1365.449219 C 2108.820312 1365.449219 2095.808594 1368.929688 2095.808594 1368.929688 C 2095.808594 1368.929688 2131.371094 1370.660156 2141.03125 1371.898438 C 2150.699219 1373.140625 2156.28125 1382.421875 2140.421875 1382.929688 C 2124.550781 1383.429688 2092.589844 1382.929688 2092.589844 1382.929688 C 2092.589844 1382.929688 2134.46875 1390.980469 2134.46875 1396.441406 C 2134.46875 1401.878906 2099.519531 1398.789062 2087.128906 1399.53125 C 2074.738281 1400.269531 2040.421875 1406.898438 2026.851562 1401.320312 C 2013.28125 1395.75 2008.078125 1394.449219 1987.078125 1394.449219 C 1966.070312 1394.449219 1990.609375 1358.398438 1990.609375 1358.398438 "/>
<path fill-rule="nonzero" fill="rgb(52.832031%, 75.283813%, 91.923523%)" fill-opacity="1" d="M 2003.269531 1400.761719 C 2003.109375 1400.761719 2002.949219 1400.761719 2002.730469 1400.871094 C 1994.199219 1402.429688 1913.871094 1433.851562 1849.308594 1446.871094 C 1783.171875 1460.25 1766.808594 1384.398438 1750.03125 1342.78125 C 1733.128906 1301.160156 1718.769531 1296.679688 1712.828125 1325.929688 C 1706.890625 1355.140625 1702.898438 1415.171875 1702.898438 1435.960938 C 1702.898438 1456.800781 1710.351562 1487.460938 1698.898438 1498.898438 C 1689.019531 1508.828125 1688.101562 1514.671875 1688.050781 1515.960938 C 1688.050781 1516.128906 1688.050781 1516.289062 1688.050781 1516.289062 C 1688.050781 1516.289062 1688.160156 1518.070312 1687.460938 1522.328125 C 1686.589844 1527.089844 1684.75 1534.96875 1680.601562 1546.949219 C 1680.121094 1548.300781 1679.628906 1549.539062 1679.199219 1550.671875 C 1671.640625 1568.28125 1661.058594 1556.289062 1587.421875 1539.5 C 1524.308594 1525.140625 1507.578125 1508.519531 1493.710938 1473.75 C 1490.351562 1465.441406 1487.179688 1456.039062 1483.550781 1445.351562 C 1464.980469 1390.339844 1436 1273.679688 1439.71875 1241.671875 C 1442.898438 1214.671875 1509.898438 1163.441406 1530.851562 1148.050781 C 1534.789062 1145.140625 1537.109375 1143.519531 1537.109375 1143.519531 C 1564.148438 1140.070312 1660.789062 1160.691406 1689.511719 1159.550781 C 1718.21875 1158.421875 1755.699219 1172.570312 1766.058594 1201.550781 C 1776.53125 1230.488281 1810.980469 1309.578125 1826.789062 1337.328125 C 1842.660156 1365.070312 1966.449219 1359.140625 1978.328125 1356.171875 C 1990.210938 1353.199219 1996.949219 1358.761719 2000.628906 1371.390625 C 2004.398438 1384.078125 2008.078125 1400.761719 2003.269531 1400.761719 "/>
<path fill-rule="nonzero" fill="rgb(34.675598%, 55.892944%, 82.365417%)" fill-opacity="1" d="M 2003.25 1400.761719 C 2003.128906 1400.761719 2002.949219 1400.761719 2002.710938 1400.878906 C 2002.660156 1400 2002.589844 1399.101562 2002.539062 1398.160156 C 2000.628906 1362.46875 1985.050781 1357.289062 1948.589844 1363.601562 C 1912.199219 1369.898438 1897.328125 1368.421875 1862.351562 1360.980469 C 1827.449219 1353.550781 1833.75 1355.039062 1816.261719 1367.28125 C 1798.78125 1379.589844 1785.808594 1411.539062 1785.808594 1411.539062 C 1785.808594 1411.539062 1787.300781 1404.511719 1794.378906 1385.539062 C 1801.390625 1366.570312 1830.058594 1349.089844 1830.058594 1349.089844 C 1830.058594 1349.089844 1822.988281 1342.070312 1807.339844 1313.761719 C 1791.761719 1285.570312 1774.75 1248.628906 1762.261719 1210.449219 C 1749.769531 1172.269531 1695.460938 1166.859375 1695.460938 1166.859375 C 1695.460938 1166.859375 1686.078125 1186.660156 1613.339844 1200.039062 C 1555.589844 1210.691406 1536.320312 1166.621094 1530.851562 1148.058594 C 1534.78125 1145.148438 1537.089844 1143.539062 1537.089844 1143.539062 C 1564.148438 1140.089844 1660.789062 1160.671875 1689.519531 1159.539062 C 1718.25 1158.410156 1755.710938 1172.570312 1766.058594 1201.53125 C 1776.53125 1230.488281 1810.960938 1309.589844 1826.789062 1337.308594 C 1842.671875 1365.078125 1966.429688 1359.140625 1978.328125 1356.160156 C 1990.21875 1353.179688 1996.941406 1358.769531 2000.628906 1371.390625 C 2004.378906 1384.050781 2008.058594 1400.761719 2003.25 1400.761719 "/>
<path fill-rule="nonzero" fill="rgb(90.16571%, 67.538452%, 36.912537%)" fill-opacity="1" d="M 1572.058594 1085.601562 C 1572.058594 1085.601562 1568.71875 1124.210938 1537.121094 1143.539062 C 1537.121094 1143.539062 1556.820312 1196.328125 1614.441406 1191.488281 C 1672.058594 1186.660156 1689.519531 1159.53125 1689.519531 1159.53125 C 1689.519531 1159.53125 1678.75 1157.28125 1672.789062 1138.699219 C 1666.851562 1120.121094 1575.410156 1079.980469 1575.410156 1079.980469 L 1572.058594 1085.601562 "/>
<path fill-rule="nonzero" fill="rgb(13.905334%, 13.294983%, 13.098145%)" fill-opacity="1" d="M 1567.230469 1075.148438 C 1567.230469 1075.148438 1528.941406 987.429688 1580.238281 949.511719 C 1631.53125 911.589844 1667.960938 927.949219 1696.949219 942.070312 C 1725.949219 956.199219 1749.738281 936.128906 1757.921875 936.128906 C 1766.089844 936.128906 1765.359375 1010.71875 1732.648438 1033.019531 C 1699.941406 1055.320312 1656.421875 1124.078125 1617.039062 1108.601562 C 1577.660156 1093.121094 1567.230469 1080.71875 1567.230469 1075.148438 "/>
<path fill-rule="nonzero" fill="rgb(93.125916%, 74.520874%, 47.084045%)" fill-opacity="1" d="M 1735.988281 1029.800781 C 1735.988281 1029.800781 1728.921875 1062.140625 1718.519531 1076.640625 C 1708.109375 1091.128906 1699.738281 1110.089844 1696.769531 1117.519531 C 1693.800781 1124.960938 1691.941406 1129.421875 1692.871094 1133.511719 C 1693.800781 1137.601562 1685.621094 1140.941406 1681.71875 1141.871094 C 1677.808594 1142.800781 1671.441406 1155.191406 1660.78125 1160.640625 C 1650.121094 1166.101562 1618.160156 1151.96875 1603.53125 1131.648438 C 1588.910156 1111.328125 1579.25 1093.730469 1579.25 1093.730469 C 1579.25 1093.730469 1561.421875 1087.539062 1553.980469 1074.898438 C 1546.539062 1062.261719 1557.941406 1051.359375 1565.621094 1051.359375 C 1573.300781 1051.359375 1586.691406 1058.300781 1589.660156 1065.730469 C 1592.628906 1073.171875 1592.628906 1073.171875 1592.628906 1073.171875 L 1600.808594 1073.910156 C 1600.808594 1073.910156 1599.941406 1054.328125 1613.699219 1049.5 C 1627.449219 1044.671875 1638.21875 1042.070312 1638.21875 1025.710938 C 1638.21875 1009.351562 1732.269531 997.460938 1735.988281 1029.800781 "/>
<path fill-rule="nonzero" fill="rgb(34.675598%, 55.892944%, 82.365417%)" fill-opacity="1" d="M 1687.441406 1522.328125 C 1674.300781 1516.261719 1644.738281 1502.769531 1615.179688 1490.988281 C 1575.519531 1475.109375 1545.78125 1465.179688 1539.828125 1436.449219 C 1533.878906 1407.71875 1544.578125 1375.488281 1535.660156 1337.960938 C 1526.738281 1300.429688 1526.449219 1265.941406 1526.449219 1265.941406 C 1526.449219 1265.941406 1539.828125 1329.398438 1543.808594 1369.058594 C 1547.800781 1408.679688 1521.988281 1441.929688 1575.519531 1468.679688 C 1618.929688 1490.390625 1670.25 1509.480469 1688.039062 1515.96875 C 1688.039062 1516.148438 1688.039062 1516.261719 1688.039062 1516.261719 C 1688.039062 1516.261719 1688.148438 1518.050781 1687.441406 1522.328125 "/>
<path fill-rule="nonzero" fill="rgb(34.675598%, 55.892944%, 82.365417%)" fill-opacity="1" d="M 1571.398438 1528.808594 C 1530.289062 1516.011719 1510.101562 1496.738281 1500.25 1482.089844 C 1497.921875 1479.328125 1495.699219 1476.539062 1493.710938 1473.75 C 1507.578125 1508.519531 1524.308594 1525.140625 1587.421875 1539.5 C 1650.878906 1553.96875 1667.5 1564.851562 1675.71875 1556.328125 C 1660.261719 1553.28125 1625.039062 1545.511719 1571.398438 1528.808594 "/>
<path fill="none" stroke-width="107.971" stroke-linecap="round" stroke-linejoin="miter" stroke="rgb(52.832031%, 75.283813%, 91.923523%)" stroke-opacity="1" stroke-miterlimit="10" d="M 17486.40625 9753.710938 C 17477.382812 10219.492188 17434.6875 10439.804688 17434.6875 10439.804688 " transform="matrix(0.1, 0, 0, -0.1, 0, 2501)"/>
<path fill-rule="nonzero" fill="rgb(13.905334%, 13.294983%, 13.098145%)" fill-opacity="1" d="M 1643.78125 1073.480469 C 1643.78125 1073.480469 1666.890625 1067.738281 1682.070312 1071.109375 C 1697.261719 1074.488281 1680.890625 1075.160156 1669.421875 1073.480469 C 1657.949219 1071.789062 1643.78125 1073.480469 1643.78125 1073.480469 "/>
<path fill-rule="nonzero" fill="rgb(13.905334%, 13.294983%, 13.098145%)" fill-opacity="1" d="M 1707.378906 1073.480469 C 1707.378906 1073.480469 1721.308594 1070.941406 1721.308594 1072.199219 C 1721.308594 1073.480469 1715.808594 1073.898438 1711.988281 1074.359375 C 1708.171875 1074.820312 1705.121094 1073.859375 1707.378906 1073.480469 "/>
<path fill-rule="nonzero" fill="rgb(13.905334%, 13.294983%, 13.098145%)" fill-opacity="1" d="M 1706.601562 1075.828125 C 1706.601562 1075.828125 1694.101562 1111.929688 1693.378906 1121.550781 C 1692.648438 1131.171875 1692.648438 1131.171875 1692.648438 1131.171875 C 1692.648438 1131.171875 1689.160156 1121.890625 1695.738281 1102.828125 C 1702.308594 1083.761719 1706.601562 1075.828125 1706.601562 1075.828125 "/>
<path fill-rule="nonzero" fill="rgb(13.905334%, 13.294983%, 13.098145%)" fill-opacity="1" d="M 1642.601562 1144.78125 C 1642.601562 1144.78125 1664.640625 1139.148438 1673.191406 1146.019531 C 1673.191406 1146.019531 1659.640625 1141.351562 1642.601562 1144.78125 "/>
<path fill-rule="nonzero" fill="rgb(13.905334%, 13.294983%, 13.098145%)" fill-opacity="1" d="M 1688.101562 1083.699219 C 1687.300781 1084.191406 1682.21875 1086.941406 1676.171875 1088.398438 C 1673.101562 1089.210938 1669.800781 1089.640625 1666.671875 1089.320312 C 1665.640625 1089.210938 1664.621094 1089.050781 1663.589844 1088.828125 C 1655.28125 1087.101562 1648.691406 1082.351562 1647.238281 1080.089844 C 1648.210938 1080.789062 1655.558594 1085.921875 1664.671875 1087 C 1667.429688 1087.378906 1670.289062 1087.378906 1673.199219 1086.78125 C 1673.628906 1086.671875 1674.019531 1086.621094 1674.390625 1086.511719 L 1674.449219 1086.511719 C 1684.871094 1084.410156 1687.511719 1083.808594 1688.101562 1083.699219 "/>
<path fill-rule="nonzero" fill="rgb(13.905334%, 13.294983%, 13.098145%)" fill-opacity="1" d="M 1717.101562 1078.628906 C 1717.101562 1078.628906 1715.960938 1079.710938 1714.230469 1080.570312 C 1712.828125 1081.21875 1711.050781 1081.710938 1709.109375 1081.269531 C 1708.191406 1081.109375 1707.21875 1080.679688 1706.191406 1079.980469 C 1706.191406 1079.980469 1707.320312 1080.359375 1709.210938 1080.410156 C 1710.398438 1080.410156 1711.960938 1080.300781 1713.75 1079.761719 C 1714.769531 1079.550781 1715.910156 1079.171875 1717.101562 1078.628906 "/>
<path fill="none" stroke-width="107.971" stroke-linecap="butt" stroke-linejoin="miter" stroke="rgb(52.832031%, 75.283813%, 91.923523%)" stroke-opacity="1" stroke-miterlimit="10" d="M 5 1008.398438 C 5 1008.398438 16133.203125 1656.71875 16977.382812 5617.109375 C 17140.78125 6383.515625 17286.289062 7234.882812 17364.21875 7808.515625 " transform="matrix(0.1, 0, 0, -0.1, 0, 2501)"/>
<path fill-rule="nonzero" fill="rgb(52.832031%, 75.283813%, 91.923523%)" fill-opacity="1" d="M 3000.5 1464.640625 L 3000.5 1477.960938 C 2984.699219 1489.179688 2911.300781 1540.75 2818.121094 1597.070312 C 2721.160156 1655.679688 2582.269531 1731.609375 2471.269531 1760.480469 C 2409.570312 1776.539062 2357.558594 1784.578125 2313.859375 1784.578125 C 2266.410156 1784.578125 2228.75 1775.089844 2199.078125 1756.101562 C 2128.351562 1710.820312 2111.269531 1615.53125 2091.5 1505.199219 C 2089.101562 1491.820312 2086.621094 1477.988281 2084.011719 1464.039062 C 2052.21875 1294.058594 2049.828125 1255.941406 2049.75 1254.398438 C 2049.578125 1251.429688 2051.859375 1248.878906 2054.828125 1248.710938 C 2057.808594 1248.539062 2060.359375 1250.820312 2060.53125 1253.800781 C 2060.550781 1254.171875 2063.078125 1293.359375 2094.628906 1462.058594 C 2097.238281 1476.039062 2099.730469 1489.898438 2102.128906 1503.289062 C 2121.449219 1611.128906 2138.140625 1704.269531 2204.910156 1747.011719 C 2259.171875 1781.75 2342.949219 1782.710938 2468.550781 1750.03125 C 2578.289062 1721.488281 2716.191406 1646.070312 2812.539062 1587.828125 C 2907.671875 1530.328125 2986.480469 1474.628906 3000.5 1464.640625 "/>
<path fill-rule="nonzero" fill="rgb(90.16571%, 67.538452%, 36.912537%)" fill-opacity="1" d="M 2026.558594 1386.140625 C 2026.558594 1386.140625 2044.78125 1383.589844 2044.78125 1366.570312 C 2044.78125 1347.28125 2055.960938 1344.570312 2068.789062 1340.730469 C 2083.480469 1336.320312 2080.378906 1324.671875 2080.378906 1324.671875 C 2080.378906 1324.671875 2081.390625 1321.128906 2073.800781 1321.128906 C 2066.210938 1321.128906 2041.859375 1329.601562 2029.601562 1337.320312 C 2017.328125 1345.03125 2009.691406 1354.699219 2009.691406 1359.761719 C 2009.691406 1364.828125 2014.921875 1389.738281 2026.558594 1386.140625 "/>
<path fill-rule="nonzero" fill="rgb(13.905334%, 13.294983%, 13.098145%)" fill-opacity="1" d="M 1734.660156 1071.851562 C 1734.660156 1071.851562 1745.390625 1052.5 1767.429688 1055.550781 C 1789.46875 1058.589844 1734.660156 1071.851562 1734.660156 1071.851562 "/>
<path fill-rule="nonzero" fill="rgb(13.905334%, 13.294983%, 13.098145%)" fill-opacity="1" d="M 1733.101562 1079.550781 C 1733.101562 1079.550781 1775.511719 1070.71875 1780.191406 1080.648438 C 1784.859375 1090.589844 1733.101562 1079.550781 1733.101562 1079.550781 "/>
<path fill-rule="nonzero" fill="rgb(13.905334%, 13.294983%, 13.098145%)" fill-opacity="1" d="M 1727.601562 1086.449219 C 1727.601562 1086.449219 1761.660156 1099.261719 1748.308594 1103.828125 C 1734.949219 1108.410156 1727.601562 1086.449219 1727.601562 1086.449219 "/>
<path fill-rule="nonzero" fill="rgb(6.266785%, 5.734253%, 5.047607%)" fill-opacity="1" d="M 1063.289062 598.410156 C 1065.851562 599.078125 1069.089844 599.351562 1073 599.351562 C 1087.171875 599.351562 1095.800781 592.46875 1095.800781 579.921875 C 1095.800781 567.910156 1087.300781 562.109375 1074.351562 562.109375 C 1069.21875 562.109375 1065.308594 562.519531 1063.289062 563.058594 Z M 1051.550781 554.558594 C 1057.210938 553.609375 1064.628906 552.800781 1074.078125 552.800781 C 1085.679688 552.800781 1094.191406 555.5 1099.578125 560.359375 C 1104.570312 564.679688 1107.539062 571.289062 1107.539062 579.378906 C 1107.539062 587.609375 1105.109375 594.089844 1100.53125 598.808594 C 1094.320312 605.429688 1084.199219 608.800781 1072.730469 608.800781 C 1069.21875 608.800781 1065.980469 608.660156 1063.289062 607.988281 L 1063.289062 644.421875 L 1051.550781 644.421875 L 1051.550781 554.558594 "/>
<path fill-rule="nonzero" fill="rgb(6.266785%, 5.734253%, 5.047607%)" fill-opacity="1" d="M 1153.828125 611.089844 C 1140.871094 610.820312 1126.160156 613.121094 1126.160156 625.800781 C 1126.160156 633.488281 1131.289062 637.140625 1137.359375 637.140625 C 1145.859375 637.140625 1151.261719 631.738281 1153.148438 626.210938 C 1153.558594 624.988281 1153.828125 623.640625 1153.828125 622.429688 Z M 1155.578125 644.421875 L 1154.628906 636.191406 L 1154.230469 636.191406 C 1150.589844 641.320312 1143.570312 645.910156 1134.261719 645.910156 C 1121.039062 645.910156 1114.289062 636.601562 1114.289062 627.148438 C 1114.289062 611.359375 1128.320312 602.730469 1153.558594 602.859375 L 1153.558594 601.511719 C 1153.558594 596.121094 1152.070312 586.398438 1138.710938 586.398438 C 1132.640625 586.398438 1126.300781 588.289062 1121.710938 591.261719 L 1119.011719 583.429688 C 1124.410156 579.921875 1132.238281 577.628906 1140.46875 577.628906 C 1160.441406 577.628906 1165.289062 591.261719 1165.289062 604.351562 L 1165.289062 628.769531 C 1165.289062 634.441406 1165.558594 639.96875 1166.371094 644.421875 L 1155.578125 644.421875 "/>
<path fill-rule="nonzero" fill="rgb(6.266785%, 5.734253%, 5.047607%)" fill-opacity="1" d="M 1228.441406 604.890625 C 1228.441406 602.859375 1228.308594 601.109375 1227.769531 599.488281 C 1225.609375 592.609375 1219.808594 586.941406 1211.171875 586.941406 C 1199.828125 586.941406 1191.738281 596.519531 1191.738281 611.628906 C 1191.738281 624.449219 1198.21875 635.109375 1211.03125 635.109375 C 1218.320312 635.109375 1224.929688 630.519531 1227.5 622.96875 C 1228.171875 620.941406 1228.441406 618.648438 1228.441406 616.628906 Z M 1240.71875 579.109375 C 1240.449219 583.839844 1240.179688 589.101562 1240.179688 597.058594 L 1240.179688 634.980469 C 1240.179688 649.960938 1237.210938 659.128906 1230.871094 664.800781 C 1224.53125 670.730469 1215.351562 672.621094 1207.121094 672.621094 C 1199.300781 672.621094 1190.660156 670.730469 1185.398438 667.230469 L 1188.371094 658.191406 C 1192.679688 660.878906 1199.429688 663.308594 1207.53125 663.308594 C 1219.671875 663.308594 1228.578125 656.96875 1228.578125 640.511719 L 1228.578125 633.21875 L 1228.308594 633.21875 C 1224.660156 639.289062 1217.648438 644.148438 1207.53125 644.148438 C 1191.328125 644.148438 1179.730469 630.390625 1179.730469 612.308594 C 1179.730469 590.179688 1194.171875 577.628906 1209.148438 577.628906 C 1220.480469 577.628906 1226.691406 583.570312 1229.519531 588.960938 L 1229.789062 588.960938 L 1230.328125 579.109375 L 1240.71875 579.109375 "/>
<path fill-rule="nonzero" fill="rgb(6.266785%, 5.734253%, 5.047607%)" fill-opacity="1" d="M 1301.300781 605.429688 C 1301.441406 597.871094 1298.199219 586.128906 1284.839844 586.128906 C 1272.828125 586.128906 1267.570312 597.199219 1266.621094 605.429688 Z M 1266.488281 613.929688 C 1266.761719 629.980469 1277.011719 636.601562 1288.890625 636.601562 C 1297.390625 636.601562 1302.519531 635.109375 1306.96875 633.21875 L 1308.988281 641.71875 C 1304.808594 643.609375 1297.660156 645.769531 1287.269531 645.769531 C 1267.160156 645.769531 1255.148438 632.550781 1255.148438 612.851562 C 1255.148438 593.148438 1266.761719 577.628906 1285.78125 577.628906 C 1307.101562 577.628906 1312.769531 596.390625 1312.769531 608.390625 C 1312.769531 610.820312 1312.5 612.710938 1312.371094 613.929688 L 1266.488281 613.929688 "/>
<path fill-rule="nonzero" fill="rgb(6.266785%, 5.734253%, 5.047607%)" fill-opacity="1" d="M 1356.078125 596.789062 C 1356.078125 590.039062 1355.941406 584.511719 1355.539062 579.109375 L 1366.058594 579.109375 L 1366.738281 589.910156 L 1367.011719 589.910156 C 1370.25 583.699219 1377.800781 577.628906 1388.601562 577.628906 C 1397.640625 577.628906 1411.671875 583.03125 1411.671875 605.429688 L 1411.671875 644.421875 L 1399.800781 644.421875 L 1399.800781 606.78125 C 1399.800781 596.25 1395.878906 587.480469 1384.691406 587.480469 C 1376.859375 587.480469 1370.789062 593.011719 1368.761719 599.621094 C 1368.21875 601.109375 1367.949219 603.128906 1367.949219 605.160156 L 1367.949219 644.421875 L 1356.078125 644.421875 L 1356.078125 596.789062 "/>
<path fill-rule="nonzero" fill="rgb(6.266785%, 5.734253%, 5.047607%)" fill-opacity="1" d="M 1438.25 611.898438 C 1438.25 626.210938 1446.480469 637 1458.089844 637 C 1469.421875 637 1477.921875 626.339844 1477.921875 611.628906 C 1477.921875 600.570312 1472.390625 586.539062 1458.359375 586.539062 C 1444.320312 586.539062 1438.25 599.488281 1438.25 611.898438 Z M 1490.070312 611.230469 C 1490.070312 635.378906 1473.328125 645.910156 1457.550781 645.910156 C 1439.871094 645.910156 1426.238281 632.949219 1426.238281 612.308594 C 1426.238281 590.449219 1440.539062 577.628906 1458.628906 577.628906 C 1477.378906 577.628906 1490.070312 591.261719 1490.070312 611.230469 "/>
<path fill-rule="nonzero" fill="rgb(6.266785%, 5.734253%, 5.047607%)" fill-opacity="1" d="M 1519.339844 560.359375 L 1519.339844 579.109375 L 1536.339844 579.109375 L 1536.339844 588.160156 L 1519.339844 588.160156 L 1519.339844 623.371094 C 1519.339844 631.46875 1521.640625 636.058594 1528.25 636.058594 C 1531.351562 636.058594 1533.648438 635.648438 1535.128906 635.25 L 1535.671875 644.148438 C 1533.378906 645.101562 1529.730469 645.769531 1525.148438 645.769531 C 1519.609375 645.769531 1515.160156 644.019531 1512.328125 640.78125 C 1508.949219 637.269531 1507.738281 631.46875 1507.738281 623.78125 L 1507.738281 588.160156 L 1497.621094 588.160156 L 1497.621094 579.109375 L 1507.738281 579.109375 L 1507.738281 563.460938 L 1519.339844 560.359375 "/>
<path fill-rule="nonzero" fill="rgb(6.266785%, 5.734253%, 5.047607%)" fill-opacity="1" d="M 1579.519531 644.421875 L 1579.519531 588.160156 L 1570.339844 588.160156 L 1570.339844 579.109375 L 1579.519531 579.109375 L 1579.519531 576.011719 C 1579.519531 566.828125 1581.539062 558.46875 1587.078125 553.210938 C 1591.53125 548.890625 1597.46875 547.128906 1603 547.128906 C 1607.179688 547.128906 1610.820312 548.078125 1613.121094 549.019531 L 1611.5 558.199219 C 1609.738281 557.390625 1607.320312 556.71875 1603.941406 556.71875 C 1593.820312 556.71875 1591.261719 565.621094 1591.261719 575.609375 L 1591.261719 579.109375 L 1607.050781 579.109375 L 1607.050781 588.160156 L 1591.261719 588.160156 L 1591.261719 644.421875 L 1579.519531 644.421875 "/>
<path fill-rule="nonzero" fill="rgb(6.266785%, 5.734253%, 5.047607%)" fill-opacity="1" d="M 1623.238281 611.898438 C 1623.238281 626.210938 1631.46875 637 1643.070312 637 C 1654.410156 637 1662.910156 626.339844 1662.910156 611.628906 C 1662.910156 600.570312 1657.378906 586.539062 1643.339844 586.539062 C 1629.308594 586.539062 1623.238281 599.488281 1623.238281 611.898438 Z M 1675.050781 611.230469 C 1675.050781 635.378906 1658.320312 645.910156 1642.53125 645.910156 C 1624.859375 645.910156 1611.230469 632.949219 1611.230469 612.308594 C 1611.230469 590.449219 1625.53125 577.628906 1643.609375 577.628906 C 1662.371094 577.628906 1675.050781 591.261719 1675.050781 611.230469 "/>
<path fill-rule="nonzero" fill="rgb(6.266785%, 5.734253%, 5.047607%)" fill-opacity="1" d="M 1744.671875 626.609375 C 1744.671875 633.359375 1744.808594 639.289062 1745.210938 644.421875 L 1734.691406 644.421875 L 1734.019531 633.761719 L 1733.75 633.761719 C 1730.640625 639.019531 1723.761719 645.910156 1712.160156 645.910156 C 1701.898438 645.910156 1689.621094 640.238281 1689.621094 617.300781 L 1689.621094 579.109375 L 1701.5 579.109375 L 1701.5 615.28125 C 1701.5 627.691406 1705.269531 636.058594 1716.070312 636.058594 C 1724.03125 636.058594 1729.558594 630.519531 1731.71875 625.261719 C 1732.398438 623.511719 1732.800781 621.351562 1732.800781 619.191406 L 1732.800781 579.109375 L 1744.671875 579.109375 L 1744.671875 626.609375 "/>
<path fill-rule="nonzero" fill="rgb(6.266785%, 5.734253%, 5.047607%)" fill-opacity="1" d="M 1764.371094 596.789062 C 1764.371094 590.039062 1764.238281 584.511719 1763.828125 579.109375 L 1774.359375 579.109375 L 1775.03125 589.910156 L 1775.300781 589.910156 C 1778.539062 583.699219 1786.101562 577.628906 1796.890625 577.628906 C 1805.929688 577.628906 1819.960938 583.03125 1819.960938 605.429688 L 1819.960938 644.421875 L 1808.089844 644.421875 L 1808.089844 606.78125 C 1808.089844 596.25 1804.179688 587.480469 1792.980469 587.480469 C 1785.148438 587.480469 1779.078125 593.011719 1777.058594 599.621094 C 1776.519531 601.109375 1776.25 603.128906 1776.25 605.160156 L 1776.25 644.421875 L 1764.371094 644.421875 L 1764.371094 596.789062 "/>
<path fill-rule="nonzero" fill="rgb(6.266785%, 5.734253%, 5.047607%)" fill-opacity="1" d="M 1883.789062 605.699219 C 1883.789062 604.210938 1883.648438 602.191406 1883.25 600.699219 C 1881.488281 593.148438 1875.011719 586.941406 1866.109375 586.941406 C 1853.828125 586.941406 1846.539062 597.730469 1846.539062 612.171875 C 1846.539062 625.398438 1853.019531 636.328125 1865.839844 636.328125 C 1873.800781 636.328125 1881.089844 631.058594 1883.25 622.160156 C 1883.648438 620.539062 1883.789062 618.921875 1883.789062 617.03125 Z M 1895.660156 548.621094 L 1895.660156 627.558594 C 1895.660156 633.359375 1895.789062 639.96875 1896.199219 644.421875 L 1885.539062 644.421875 L 1885 633.089844 L 1884.730469 633.089844 C 1881.089844 640.371094 1873.128906 645.910156 1862.46875 645.910156 C 1846.679688 645.910156 1834.539062 632.550781 1834.539062 612.710938 C 1834.398438 590.988281 1847.890625 577.628906 1863.820312 577.628906 C 1873.800781 577.628906 1880.550781 582.351562 1883.519531 587.609375 L 1883.789062 587.609375 L 1883.789062 548.621094 L 1895.660156 548.621094 "/>
<path fill-rule="nonzero" fill="rgb(6.266785%, 5.734253%, 5.047607%)" fill-opacity="1" d="M 1126.648438 448.359375 L 1126.648438 400.578125 C 1126.648438 393.089844 1126.871094 385.609375 1127.308594 378.121094 L 1126.648438 378.121094 C 1122.25 386.488281 1118.730469 392.660156 1114.761719 399.261719 L 1079.761719 447.921875 L 1079.761719 448.359375 Z M 1126.648438 502.53125 L 1126.648438 463.550781 L 1060.160156 463.550781 L 1060.160156 450.78125 L 1124.011719 359.410156 L 1144.929688 359.410156 L 1144.929688 448.359375 L 1164.96875 448.359375 L 1164.96875 463.550781 L 1144.929688 463.550781 L 1144.929688 502.53125 L 1126.648438 502.53125 "/>
<path fill-rule="nonzero" fill="rgb(6.266785%, 5.734253%, 5.047607%)" fill-opacity="1" d="M 1197.109375 431.628906 C 1197.109375 468.839844 1208.558594 489.980469 1226.171875 489.980469 C 1245.988281 489.980469 1255.460938 466.859375 1255.460938 430.308594 C 1255.460938 395.078125 1246.429688 371.960938 1226.390625 371.960938 C 1209.441406 371.960938 1197.109375 392.660156 1197.109375 431.628906 Z M 1274.828125 429.429688 C 1274.828125 478.089844 1256.78125 504.949219 1225.070312 504.949219 C 1197.109375 504.949219 1178.171875 478.75 1177.730469 431.410156 C 1177.730469 383.410156 1198.429688 356.980469 1227.488281 356.980469 C 1257.660156 356.980469 1274.828125 383.851562 1274.828125 429.429688 "/>
<path fill-rule="nonzero" fill="rgb(6.266785%, 5.734253%, 5.047607%)" fill-opacity="1" d="M 1352.558594 448.359375 L 1352.558594 400.578125 C 1352.558594 393.089844 1352.78125 385.609375 1353.21875 378.121094 L 1352.558594 378.121094 C 1348.148438 386.488281 1344.628906 392.660156 1340.671875 399.261719 L 1305.660156 447.921875 L 1305.660156 448.359375 Z M 1352.558594 502.53125 L 1352.558594 463.550781 L 1286.058594 463.550781 L 1286.058594 450.78125 L 1349.910156 359.410156 L 1370.828125 359.410156 L 1370.828125 448.359375 L 1390.871094 448.359375 L 1390.871094 463.550781 L 1370.828125 463.550781 L 1370.828125 502.53125 L 1352.558594 502.53125 "/>
<path fill-rule="nonzero" fill="rgb(6.266785%, 5.734253%, 5.047607%)" fill-opacity="1" d="M 1526.050781 438.890625 C 1526.269531 426.558594 1520.988281 407.410156 1499.191406 407.410156 C 1479.589844 407.410156 1471.011719 425.460938 1469.46875 438.890625 Z M 1469.25 452.761719 C 1469.691406 478.96875 1486.421875 489.761719 1505.800781 489.761719 C 1519.671875 489.761719 1528.039062 487.328125 1535.300781 484.25 L 1538.601562 498.121094 C 1531.78125 501.210938 1520.109375 504.730469 1503.148438 504.730469 C 1470.351562 504.730469 1450.75 483.148438 1450.75 451 C 1450.75 418.859375 1469.691406 393.539062 1500.730469 393.539062 C 1535.519531 393.539062 1544.769531 424.140625 1544.769531 443.738281 C 1544.769531 447.699219 1544.328125 450.78125 1544.109375 452.761719 L 1469.25 452.761719 "/>
<path fill-rule="nonzero" fill="rgb(6.266785%, 5.734253%, 5.047607%)" fill-opacity="1" d="M 1568.769531 429.210938 C 1568.769531 416.660156 1568.550781 405.871094 1567.890625 395.960938 L 1584.839844 395.960938 L 1585.5 416.871094 L 1586.378906 416.871094 C 1591.230469 402.558594 1602.898438 393.539062 1615.890625 393.539062 C 1618.089844 393.539062 1619.628906 393.761719 1621.390625 394.199219 L 1621.390625 412.46875 C 1619.410156 412.03125 1617.429688 411.808594 1614.789062 411.808594 C 1601.128906 411.808594 1591.449219 422.160156 1588.800781 436.691406 C 1588.359375 439.328125 1587.921875 442.421875 1587.921875 445.71875 L 1587.921875 502.53125 L 1568.769531 502.53125 L 1568.769531 429.210938 "/>
<path fill-rule="nonzero" fill="rgb(6.266785%, 5.734253%, 5.047607%)" fill-opacity="1" d="M 1641.648438 429.210938 C 1641.648438 416.660156 1641.429688 405.871094 1640.769531 395.960938 L 1657.71875 395.960938 L 1658.378906 416.871094 L 1659.261719 416.871094 C 1664.109375 402.558594 1675.78125 393.539062 1688.769531 393.539062 C 1690.96875 393.539062 1692.511719 393.761719 1694.269531 394.199219 L 1694.269531 412.46875 C 1692.289062 412.03125 1690.308594 411.808594 1687.660156 411.808594 C 1674.011719 411.808594 1664.328125 422.160156 1661.679688 436.691406 C 1661.238281 439.328125 1660.800781 442.421875 1660.800781 445.71875 L 1660.800781 502.53125 L 1641.648438 502.53125 L 1641.648438 429.210938 "/>
<path fill-rule="nonzero" fill="rgb(6.266785%, 5.734253%, 5.047607%)" fill-opacity="1" d="M 1723.328125 449.460938 C 1723.328125 472.800781 1736.769531 490.421875 1755.699219 490.421875 C 1774.199219 490.421875 1788.070312 473.019531 1788.070312 449.019531 C 1788.070312 430.96875 1779.039062 408.070312 1756.140625 408.070312 C 1733.238281 408.070312 1723.328125 429.210938 1723.328125 449.460938 Z M 1807.878906 448.359375 C 1807.878906 487.769531 1780.578125 504.949219 1754.820312 504.949219 C 1725.980469 504.949219 1703.738281 483.808594 1703.738281 450.121094 C 1703.738281 414.449219 1727.078125 393.539062 1756.578125 393.539062 C 1787.191406 393.539062 1807.878906 415.769531 1807.878906 448.359375 "/>
<path fill-rule="nonzero" fill="rgb(6.266785%, 5.734253%, 5.047607%)" fill-opacity="1" d="M 1832.320312 429.210938 C 1832.320312 416.660156 1832.101562 405.871094 1831.441406 395.960938 L 1848.398438 395.960938 L 1849.058594 416.871094 L 1849.941406 416.871094 C 1854.78125 402.558594 1866.449219 393.539062 1879.441406 393.539062 C 1881.640625 393.539062 1883.191406 393.761719 1884.949219 394.199219 L 1884.949219 412.46875 C 1882.96875 412.03125 1880.980469 411.808594 1878.339844 411.808594 C 1864.691406 411.808594 1855 422.160156 1852.359375 436.691406 C 1851.921875 439.328125 1851.480469 442.421875 1851.480469 445.71875 L 1851.480469 502.53125 L 1832.320312 502.53125 L 1832.320312 429.210938 "/>
</svg>
